<mxfile host="app.diagrams.net" modified="2021-11-09T07:04:00.240Z" agent="5.0 (X11; Linux x86_64) AppleWebKit/537.36 (KHTML, like Gecko) Chrome/83.0.4103.106 Safari/537.36" etag="3IsJRRGBPkegVjgyX4xG" version="15.5.9" type="github">
  <diagram id="M2nfgKmNFZcQD9SM70Va" name="Page-1">
    <mxGraphModel dx="1350" dy="1825" grid="1" gridSize="10" guides="1" tooltips="1" connect="1" arrows="1" fold="1" page="1" pageScale="1" pageWidth="850" pageHeight="1100" math="0" shadow="0">
      <root>
        <mxCell id="0" />
        <mxCell id="1" parent="0" />
        <mxCell id="VoGEhj3P5TK3Omv5-3tw-176" value="" style="rounded=0;whiteSpace=wrap;html=1;shadow=0;fontSize=18;strokeColor=default;fillColor=#FFFFFF;align=left;strokeWidth=2;" vertex="1" parent="1">
          <mxGeometry x="277.5" y="394" width="182" height="91" as="geometry" />
        </mxCell>
        <mxCell id="VoGEhj3P5TK3Omv5-3tw-35" value="" style="rounded=0;whiteSpace=wrap;html=1;strokeColor=default;align=center;" vertex="1" parent="1">
          <mxGeometry x="610" y="327" width="120" height="60" as="geometry" />
        </mxCell>
        <mxCell id="VoGEhj3P5TK3Omv5-3tw-1" value="" style="rounded=0;whiteSpace=wrap;html=1;align=left;" vertex="1" parent="1">
          <mxGeometry x="247.5" y="130" width="270" height="110" as="geometry" />
        </mxCell>
        <mxCell id="VoGEhj3P5TK3Omv5-3tw-2" value="" style="rounded=0;whiteSpace=wrap;html=1;" vertex="1" parent="1">
          <mxGeometry x="580" y="267" width="610" height="260" as="geometry" />
        </mxCell>
        <mxCell id="VoGEhj3P5TK3Omv5-3tw-3" value="" style="rounded=0;whiteSpace=wrap;html=1;" vertex="1" parent="1">
          <mxGeometry x="580" y="-60" width="470" height="250" as="geometry" />
        </mxCell>
        <mxCell id="VoGEhj3P5TK3Omv5-3tw-4" value="Master Node" style="text;html=1;strokeColor=none;fillColor=none;align=center;verticalAlign=middle;whiteSpace=wrap;rounded=0;" vertex="1" parent="1">
          <mxGeometry x="240" y="100" width="95" height="20" as="geometry" />
        </mxCell>
        <mxCell id="VoGEhj3P5TK3Omv5-3tw-6" value="Worker Node&lt;br&gt;(show cross-host acceleration)" style="text;html=1;strokeColor=none;fillColor=none;align=left;verticalAlign=middle;whiteSpace=wrap;rounded=0;" vertex="1" parent="1">
          <mxGeometry x="575" y="-100" width="175" height="40" as="geometry" />
        </mxCell>
        <mxCell id="VoGEhj3P5TK3Omv5-3tw-41" style="edgeStyle=orthogonalEdgeStyle;rounded=0;orthogonalLoop=1;jettySize=auto;html=1;exitX=0;exitY=0.5;exitDx=0;exitDy=0;entryX=1;entryY=0.75;entryDx=0;entryDy=0;startArrow=classic;startFill=1;" edge="1" parent="1" source="VoGEhj3P5TK3Omv5-3tw-7" target="VoGEhj3P5TK3Omv5-3tw-9">
          <mxGeometry relative="1" as="geometry">
            <Array as="points">
              <mxPoint x="550" y="292" />
              <mxPoint x="550" y="198" />
            </Array>
          </mxGeometry>
        </mxCell>
        <mxCell id="VoGEhj3P5TK3Omv5-3tw-7" value="eBPF-accel Controller" style="rounded=1;whiteSpace=wrap;html=1;align=left;fillColor=#dae8fc;strokeColor=#6c8ebf;" vertex="1" parent="1">
          <mxGeometry x="600" y="277" width="120" height="30" as="geometry" />
        </mxCell>
        <mxCell id="VoGEhj3P5TK3Omv5-3tw-43" style="edgeStyle=orthogonalEdgeStyle;rounded=0;orthogonalLoop=1;jettySize=auto;html=1;exitX=0;exitY=0.5;exitDx=0;exitDy=0;entryX=1;entryY=0.25;entryDx=0;entryDy=0;startArrow=classic;startFill=1;" edge="1" parent="1" source="VoGEhj3P5TK3Omv5-3tw-8" target="VoGEhj3P5TK3Omv5-3tw-9">
          <mxGeometry relative="1" as="geometry">
            <Array as="points">
              <mxPoint x="550" y="-25" />
              <mxPoint x="550" y="173" />
            </Array>
          </mxGeometry>
        </mxCell>
        <mxCell id="VoGEhj3P5TK3Omv5-3tw-96" style="edgeStyle=orthogonalEdgeStyle;curved=1;rounded=0;orthogonalLoop=1;jettySize=auto;html=1;exitX=0.5;exitY=1;exitDx=0;exitDy=0;entryX=0;entryY=0.5;entryDx=0;entryDy=0;startArrow=none;startFill=0;endArrow=classic;endFill=1;" edge="1" parent="1" source="VoGEhj3P5TK3Omv5-3tw-8" target="VoGEhj3P5TK3Omv5-3tw-92">
          <mxGeometry relative="1" as="geometry" />
        </mxCell>
        <mxCell id="VoGEhj3P5TK3Omv5-3tw-97" style="edgeStyle=orthogonalEdgeStyle;curved=1;rounded=0;orthogonalLoop=1;jettySize=auto;html=1;exitX=0.5;exitY=1;exitDx=0;exitDy=0;entryX=0;entryY=0.5;entryDx=0;entryDy=0;startArrow=none;startFill=0;endArrow=classic;endFill=1;" edge="1" parent="1" source="VoGEhj3P5TK3Omv5-3tw-8" target="VoGEhj3P5TK3Omv5-3tw-83">
          <mxGeometry relative="1" as="geometry" />
        </mxCell>
        <mxCell id="VoGEhj3P5TK3Omv5-3tw-8" value="eBPF-accel Controller" style="rounded=1;whiteSpace=wrap;html=1;align=left;fillColor=#dae8fc;strokeColor=#6c8ebf;" vertex="1" parent="1">
          <mxGeometry x="600" y="-40" width="120" height="30" as="geometry" />
        </mxCell>
        <mxCell id="VoGEhj3P5TK3Omv5-3tw-13" style="edgeStyle=orthogonalEdgeStyle;rounded=0;orthogonalLoop=1;jettySize=auto;html=1;exitX=0;exitY=0.5;exitDx=0;exitDy=0;" edge="1" parent="1" source="VoGEhj3P5TK3Omv5-3tw-9" target="VoGEhj3P5TK3Omv5-3tw-12">
          <mxGeometry relative="1" as="geometry" />
        </mxCell>
        <mxCell id="VoGEhj3P5TK3Omv5-3tw-9" value="API Server" style="rounded=1;whiteSpace=wrap;html=1;align=center;fillColor=#dae8fc;strokeColor=#6c8ebf;" vertex="1" parent="1">
          <mxGeometry x="352.5" y="160" width="120" height="50" as="geometry" />
        </mxCell>
        <mxCell id="VoGEhj3P5TK3Omv5-3tw-12" value="etcd" style="rounded=1;whiteSpace=wrap;html=1;align=center;fillColor=#dae8fc;strokeColor=#6c8ebf;" vertex="1" parent="1">
          <mxGeometry x="277.5" y="170" width="57.5" height="30" as="geometry" />
        </mxCell>
        <mxCell id="VoGEhj3P5TK3Omv5-3tw-21" value="user space" style="text;html=1;strokeColor=none;fillColor=none;align=center;verticalAlign=middle;whiteSpace=wrap;rounded=0;" vertex="1" parent="1">
          <mxGeometry x="1118" y="367" width="72" height="30" as="geometry" />
        </mxCell>
        <mxCell id="VoGEhj3P5TK3Omv5-3tw-22" value="user space" style="text;html=1;strokeColor=none;fillColor=none;align=center;verticalAlign=middle;whiteSpace=wrap;rounded=0;" vertex="1" parent="1">
          <mxGeometry x="980" y="30" width="72" height="30" as="geometry" />
        </mxCell>
        <mxCell id="VoGEhj3P5TK3Omv5-3tw-23" value="kernel space" style="text;html=1;strokeColor=none;fillColor=none;align=center;verticalAlign=middle;whiteSpace=wrap;rounded=0;" vertex="1" parent="1">
          <mxGeometry x="1118" y="397" width="72" height="30" as="geometry" />
        </mxCell>
        <mxCell id="VoGEhj3P5TK3Omv5-3tw-24" value="kernel space" style="text;html=1;strokeColor=none;fillColor=none;align=center;verticalAlign=middle;whiteSpace=wrap;rounded=0;" vertex="1" parent="1">
          <mxGeometry x="978" y="70" width="72" height="30" as="geometry" />
        </mxCell>
        <mxCell id="VoGEhj3P5TK3Omv5-3tw-27" value="Maps" style="shape=cylinder3;whiteSpace=wrap;html=1;boundedLbl=1;backgroundOutline=1;size=9.5;strokeColor=#d79b00;align=center;fillColor=#ffe6cc;" vertex="1" parent="1">
          <mxGeometry x="600" y="450" width="60" height="50" as="geometry" />
        </mxCell>
        <mxCell id="VoGEhj3P5TK3Omv5-3tw-28" value="Maps" style="shape=cylinder3;whiteSpace=wrap;html=1;boundedLbl=1;backgroundOutline=1;size=9.5;strokeColor=#d79b00;align=center;fillColor=#ffe6cc;" vertex="1" parent="1">
          <mxGeometry x="587.5" y="110" width="60" height="50" as="geometry" />
        </mxCell>
        <mxCell id="VoGEhj3P5TK3Omv5-3tw-30" value="" style="curved=1;endArrow=classic;html=1;rounded=0;exitX=0.25;exitY=1;exitDx=0;exitDy=0;entryX=0.5;entryY=0;entryDx=0;entryDy=0;entryPerimeter=0;" edge="1" parent="1" source="VoGEhj3P5TK3Omv5-3tw-8" target="VoGEhj3P5TK3Omv5-3tw-28">
          <mxGeometry width="50" height="50" relative="1" as="geometry">
            <mxPoint x="820" y="55" as="sourcePoint" />
            <mxPoint x="840" y="120" as="targetPoint" />
            <Array as="points">
              <mxPoint x="618" y="80" />
            </Array>
          </mxGeometry>
        </mxCell>
        <mxCell id="VoGEhj3P5TK3Omv5-3tw-80" value="" style="rounded=1;whiteSpace=wrap;html=1;strokeColor=default;align=center;dashed=1;dashPattern=1 2;" vertex="1" parent="1">
          <mxGeometry x="800" width="160" height="100" as="geometry" />
        </mxCell>
        <mxCell id="VoGEhj3P5TK3Omv5-3tw-20" value="" style="endArrow=none;dashed=1;html=1;rounded=0;exitX=0;exitY=0.5;exitDx=0;exitDy=0;entryX=1;entryY=0.5;entryDx=0;entryDy=0;" edge="1" parent="1" source="VoGEhj3P5TK3Omv5-3tw-3" target="VoGEhj3P5TK3Omv5-3tw-3">
          <mxGeometry width="50" height="50" relative="1" as="geometry">
            <mxPoint x="585" y="99.5" as="sourcePoint" />
            <mxPoint x="885" y="99.5" as="targetPoint" />
          </mxGeometry>
        </mxCell>
        <mxCell id="VoGEhj3P5TK3Omv5-3tw-136" style="edgeStyle=orthogonalEdgeStyle;curved=1;rounded=0;orthogonalLoop=1;jettySize=auto;html=1;exitX=0.5;exitY=1;exitDx=0;exitDy=0;dashed=1;fontSize=12;startArrow=classic;startFill=1;endArrow=classic;endFill=1;strokeWidth=1;" edge="1" parent="1" source="VoGEhj3P5TK3Omv5-3tw-83">
          <mxGeometry relative="1" as="geometry">
            <mxPoint x="1170" y="150" as="targetPoint" />
            <Array as="points">
              <mxPoint x="885" y="220" />
              <mxPoint x="1170" y="220" />
            </Array>
          </mxGeometry>
        </mxCell>
        <mxCell id="VoGEhj3P5TK3Omv5-3tw-83" value="ens0" style="rounded=0;whiteSpace=wrap;html=1;strokeColor=#d79b00;align=center;rotation=0;fillColor=#ffe6cc;" vertex="1" parent="1">
          <mxGeometry x="855" y="165" width="60" height="25" as="geometry" />
        </mxCell>
        <mxCell id="VoGEhj3P5TK3Omv5-3tw-86" value="envoy" style="rounded=0;whiteSpace=wrap;html=1;strokeColor=#82b366;align=center;fillColor=#d5e8d4;" vertex="1" parent="1">
          <mxGeometry x="845" y="30" width="70" height="20" as="geometry" />
        </mxCell>
        <mxCell id="VoGEhj3P5TK3Omv5-3tw-93" style="edgeStyle=orthogonalEdgeStyle;rounded=0;orthogonalLoop=1;jettySize=auto;html=1;exitX=0.5;exitY=1;exitDx=0;exitDy=0;entryX=0.5;entryY=0;entryDx=0;entryDy=0;startArrow=none;startFill=0;endArrow=none;endFill=0;" edge="1" parent="1" source="VoGEhj3P5TK3Omv5-3tw-91" target="VoGEhj3P5TK3Omv5-3tw-92">
          <mxGeometry relative="1" as="geometry" />
        </mxCell>
        <mxCell id="VoGEhj3P5TK3Omv5-3tw-91" value="eth0" style="rounded=0;whiteSpace=wrap;html=1;fillColor=#ffe6cc;strokeColor=#d79b00;shadow=0;" vertex="1" parent="1">
          <mxGeometry x="845" y="80" width="75" height="20" as="geometry" />
        </mxCell>
        <mxCell id="VoGEhj3P5TK3Omv5-3tw-134" style="edgeStyle=orthogonalEdgeStyle;rounded=0;orthogonalLoop=1;jettySize=auto;html=1;exitX=1;exitY=0.5;exitDx=0;exitDy=0;entryX=1;entryY=0.25;entryDx=0;entryDy=0;fontSize=12;startArrow=classic;startFill=1;endArrow=classic;endFill=1;strokeWidth=1;curved=1;dashed=1;" edge="1" parent="1" source="VoGEhj3P5TK3Omv5-3tw-92" target="VoGEhj3P5TK3Omv5-3tw-83">
          <mxGeometry relative="1" as="geometry">
            <Array as="points">
              <mxPoint x="960" y="126" />
              <mxPoint x="960" y="171" />
            </Array>
          </mxGeometry>
        </mxCell>
        <mxCell id="VoGEhj3P5TK3Omv5-3tw-92" value="veth0" style="rounded=0;whiteSpace=wrap;html=1;shadow=0;strokeColor=#d79b00;align=center;fillColor=#ffe6cc;" vertex="1" parent="1">
          <mxGeometry x="840" y="116.1" width="80" height="20" as="geometry" />
        </mxCell>
        <mxCell id="VoGEhj3P5TK3Omv5-3tw-94" value="Pod" style="text;html=1;strokeColor=none;fillColor=none;align=center;verticalAlign=middle;whiteSpace=wrap;rounded=0;shadow=0;" vertex="1" parent="1">
          <mxGeometry x="790" width="60" height="30" as="geometry" />
        </mxCell>
        <mxCell id="VoGEhj3P5TK3Omv5-3tw-95" style="edgeStyle=orthogonalEdgeStyle;rounded=0;orthogonalLoop=1;jettySize=auto;html=1;exitX=0.5;exitY=1;exitDx=0;exitDy=0;entryX=0;entryY=0.5;entryDx=0;entryDy=0;startArrow=none;startFill=0;endArrow=classic;endFill=1;curved=1;" edge="1" parent="1" source="VoGEhj3P5TK3Omv5-3tw-8" target="VoGEhj3P5TK3Omv5-3tw-91">
          <mxGeometry relative="1" as="geometry" />
        </mxCell>
        <mxCell id="VoGEhj3P5TK3Omv5-3tw-98" value="" style="shape=image;verticalLabelPosition=bottom;labelBackgroundColor=#ffffff;verticalAlign=top;aspect=fixed;imageAspect=0;image=https://ebpf.io/static/logo-big-9cf8920e80cdc57e6ea60825ebe287ca.png;imageBackground=default;" vertex="1" parent="1">
          <mxGeometry x="842.5" y="70.00000000000003" width="35" height="12.19" as="geometry" />
        </mxCell>
        <mxCell id="VoGEhj3P5TK3Omv5-3tw-101" value="" style="shape=image;verticalLabelPosition=bottom;labelBackgroundColor=#ffffff;verticalAlign=top;aspect=fixed;imageAspect=0;image=https://ebpf.io/static/logo-big-9cf8920e80cdc57e6ea60825ebe287ca.png;imageBackground=default;" vertex="1" parent="1">
          <mxGeometry x="835.5" y="107.81000000000003" width="35" height="12.19" as="geometry" />
        </mxCell>
        <mxCell id="VoGEhj3P5TK3Omv5-3tw-103" value="" style="shape=image;verticalLabelPosition=bottom;labelBackgroundColor=#ffffff;verticalAlign=top;aspect=fixed;imageAspect=0;image=https://ebpf.io/static/logo-big-9cf8920e80cdc57e6ea60825ebe287ca.png;imageBackground=default;" vertex="1" parent="1">
          <mxGeometry x="850" y="157.81" width="35" height="12.19" as="geometry" />
        </mxCell>
        <mxCell id="VoGEhj3P5TK3Omv5-3tw-104" value="" style="endArrow=none;dashed=1;html=1;rounded=0;curved=1;strokeWidth=2;" edge="1" parent="1">
          <mxGeometry width="50" height="50" relative="1" as="geometry">
            <mxPoint x="760" y="660" as="sourcePoint" />
            <mxPoint x="760" y="-180" as="targetPoint" />
          </mxGeometry>
        </mxCell>
        <mxCell id="VoGEhj3P5TK3Omv5-3tw-107" value="attach XDP prog" style="text;html=1;strokeColor=none;fillColor=none;align=center;verticalAlign=middle;whiteSpace=wrap;rounded=0;shadow=0;" vertex="1" parent="1">
          <mxGeometry x="670" y="10" width="60" height="30" as="geometry" />
        </mxCell>
        <mxCell id="VoGEhj3P5TK3Omv5-3tw-108" value="&lt;b&gt;&lt;font style=&quot;font-size: 16px&quot;&gt;Control Plane&lt;/font&gt;&lt;/b&gt;" style="text;html=1;strokeColor=none;fillColor=none;align=center;verticalAlign=middle;whiteSpace=wrap;rounded=0;shadow=0;" vertex="1" parent="1">
          <mxGeometry x="580" y="-170" width="160" height="30" as="geometry" />
        </mxCell>
        <mxCell id="VoGEhj3P5TK3Omv5-3tw-109" value="&lt;b&gt;&lt;font style=&quot;font-size: 16px&quot;&gt;Data Plane&lt;/font&gt;&lt;/b&gt;" style="text;html=1;strokeColor=none;fillColor=none;align=center;verticalAlign=middle;whiteSpace=wrap;rounded=0;shadow=0;" vertex="1" parent="1">
          <mxGeometry x="770" y="-170" width="160" height="30" as="geometry" />
        </mxCell>
        <mxCell id="VoGEhj3P5TK3Omv5-3tw-110" value="" style="rounded=1;whiteSpace=wrap;html=1;strokeColor=default;align=center;dashed=1;dashPattern=1 2;" vertex="1" parent="1">
          <mxGeometry x="770" y="337" width="160" height="123" as="geometry" />
        </mxCell>
        <mxCell id="VoGEhj3P5TK3Omv5-3tw-112" value="envoy" style="rounded=0;whiteSpace=wrap;html=1;strokeColor=#82b366;align=center;fillColor=#d5e8d4;" vertex="1" parent="1">
          <mxGeometry x="842.5" y="373" width="70" height="20" as="geometry" />
        </mxCell>
        <mxCell id="VoGEhj3P5TK3Omv5-3tw-116" value="Pod" style="text;html=1;strokeColor=none;fillColor=none;align=center;verticalAlign=middle;whiteSpace=wrap;rounded=0;shadow=0;" vertex="1" parent="1">
          <mxGeometry x="817.5" y="337" width="60" height="30" as="geometry" />
        </mxCell>
        <mxCell id="VoGEhj3P5TK3Omv5-3tw-120" value="" style="endArrow=classic;html=1;rounded=0;dashed=1;fontSize=16;strokeWidth=1;" edge="1" parent="1">
          <mxGeometry width="50" height="50" relative="1" as="geometry">
            <mxPoint x="289.5" y="455" as="sourcePoint" />
            <mxPoint x="352" y="455" as="targetPoint" />
          </mxGeometry>
        </mxCell>
        <mxCell id="VoGEhj3P5TK3Omv5-3tw-121" value="" style="endArrow=classic;html=1;rounded=0;fontSize=16;strokeWidth=1;" edge="1" parent="1">
          <mxGeometry width="50" height="50" relative="1" as="geometry">
            <mxPoint x="289.5" y="425" as="sourcePoint" />
            <mxPoint x="352" y="425" as="targetPoint" />
          </mxGeometry>
        </mxCell>
        <mxCell id="VoGEhj3P5TK3Omv5-3tw-122" value="&lt;font style=&quot;font-size: 12px&quot;&gt;control flow&lt;/font&gt;" style="text;html=1;strokeColor=none;fillColor=none;align=center;verticalAlign=middle;whiteSpace=wrap;rounded=0;shadow=0;fontSize=16;" vertex="1" parent="1">
          <mxGeometry x="362" y="409" width="80" height="30" as="geometry" />
        </mxCell>
        <mxCell id="VoGEhj3P5TK3Omv5-3tw-125" value="&lt;font style=&quot;font-size: 12px&quot;&gt;data flow&lt;/font&gt;" style="text;html=1;strokeColor=none;fillColor=none;align=center;verticalAlign=middle;whiteSpace=wrap;rounded=0;shadow=0;fontSize=16;" vertex="1" parent="1">
          <mxGeometry x="362" y="440" width="80" height="30" as="geometry" />
        </mxCell>
        <mxCell id="VoGEhj3P5TK3Omv5-3tw-129" value="attach eBPF prog" style="text;html=1;strokeColor=none;fillColor=none;align=center;verticalAlign=middle;whiteSpace=wrap;rounded=0;shadow=0;" vertex="1" parent="1">
          <mxGeometry x="670" y="327" width="75" height="30" as="geometry" />
        </mxCell>
        <mxCell id="VoGEhj3P5TK3Omv5-3tw-130" value="app" style="rounded=0;whiteSpace=wrap;html=1;strokeColor=#b85450;align=center;fillColor=#f8cecc;" vertex="1" parent="1">
          <mxGeometry x="775" y="373" width="35" height="20" as="geometry" />
        </mxCell>
        <mxCell id="VoGEhj3P5TK3Omv5-3tw-131" value="" style="rounded=1;whiteSpace=wrap;html=1;strokeColor=default;align=center;dashed=1;dashPattern=1 2;" vertex="1" parent="1">
          <mxGeometry x="945" y="337" width="160" height="123" as="geometry" />
        </mxCell>
        <mxCell id="VoGEhj3P5TK3Omv5-3tw-105" style="rounded=0;orthogonalLoop=1;jettySize=auto;html=1;exitX=0;exitY=0.5;exitDx=0;exitDy=0;entryX=1;entryY=0.5;entryDx=0;entryDy=0;startArrow=none;startFill=0;endArrow=none;endFill=0;strokeWidth=1;dashed=1;" edge="1" parent="1" source="VoGEhj3P5TK3Omv5-3tw-2" target="VoGEhj3P5TK3Omv5-3tw-2">
          <mxGeometry relative="1" as="geometry" />
        </mxCell>
        <mxCell id="VoGEhj3P5TK3Omv5-3tw-137" value="another host" style="text;html=1;strokeColor=none;fillColor=none;align=center;verticalAlign=middle;whiteSpace=wrap;rounded=0;shadow=0;fontSize=12;" vertex="1" parent="1">
          <mxGeometry x="1140" y="116" width="90" height="30" as="geometry" />
        </mxCell>
        <mxCell id="VoGEhj3P5TK3Omv5-3tw-141" value="Worker Node&lt;br&gt;(show same-host acceleration)" style="text;html=1;strokeColor=none;fillColor=none;align=left;verticalAlign=middle;whiteSpace=wrap;rounded=0;" vertex="1" parent="1">
          <mxGeometry x="575" y="227" width="175" height="40" as="geometry" />
        </mxCell>
        <mxCell id="VoGEhj3P5TK3Omv5-3tw-142" value="socket" style="rounded=0;whiteSpace=wrap;html=1;strokeColor=#d79b00;align=center;fillColor=#ffe6cc;" vertex="1" parent="1">
          <mxGeometry x="772.5" y="397" width="47.5" height="20" as="geometry" />
        </mxCell>
        <mxCell id="VoGEhj3P5TK3Omv5-3tw-143" value="socket" style="rounded=0;whiteSpace=wrap;html=1;strokeColor=#d79b00;align=center;fillColor=#ffe6cc;" vertex="1" parent="1">
          <mxGeometry x="835" y="397" width="42.5" height="20" as="geometry" />
        </mxCell>
        <mxCell id="VoGEhj3P5TK3Omv5-3tw-145" value="socket" style="rounded=0;whiteSpace=wrap;html=1;strokeColor=#d79b00;align=center;fillColor=#ffe6cc;" vertex="1" parent="1">
          <mxGeometry x="881.5" y="397" width="42.5" height="20" as="geometry" />
        </mxCell>
        <mxCell id="VoGEhj3P5TK3Omv5-3tw-166" style="edgeStyle=orthogonalEdgeStyle;curved=1;rounded=0;orthogonalLoop=1;jettySize=auto;html=1;exitX=0.5;exitY=1;exitDx=0;exitDy=0;entryX=0.5;entryY=1;entryDx=0;entryDy=0;dashed=1;fontSize=12;startArrow=classic;startFill=1;endArrow=classic;endFill=1;strokeWidth=1;" edge="1" parent="1" source="VoGEhj3P5TK3Omv5-3tw-117" target="VoGEhj3P5TK3Omv5-3tw-147">
          <mxGeometry relative="1" as="geometry" />
        </mxCell>
        <mxCell id="VoGEhj3P5TK3Omv5-3tw-170" style="edgeStyle=orthogonalEdgeStyle;curved=1;rounded=0;orthogonalLoop=1;jettySize=auto;html=1;exitX=0.25;exitY=1;exitDx=0;exitDy=0;entryX=1;entryY=0.5;entryDx=0;entryDy=0;entryPerimeter=0;fontSize=12;startArrow=none;startFill=0;endArrow=classic;endFill=1;strokeWidth=1;" edge="1" parent="1" source="VoGEhj3P5TK3Omv5-3tw-117" target="VoGEhj3P5TK3Omv5-3tw-27">
          <mxGeometry relative="1" as="geometry" />
        </mxCell>
        <mxCell id="VoGEhj3P5TK3Omv5-3tw-117" value="" style="shape=image;verticalLabelPosition=bottom;labelBackgroundColor=#ffffff;verticalAlign=top;aspect=fixed;imageAspect=0;image=https://ebpf.io/static/logo-big-9cf8920e80cdc57e6ea60825ebe287ca.png;imageBackground=default;fillColor=#ffe6cc;strokeColor=#d79b00;" vertex="1" parent="1">
          <mxGeometry x="778.75" y="412.91" width="35" height="12.19" as="geometry" />
        </mxCell>
        <mxCell id="VoGEhj3P5TK3Omv5-3tw-147" value="" style="shape=image;verticalLabelPosition=bottom;labelBackgroundColor=#ffffff;verticalAlign=top;aspect=fixed;imageAspect=0;image=https://ebpf.io/static/logo-big-9cf8920e80cdc57e6ea60825ebe287ca.png;imageBackground=default;" vertex="1" parent="1">
          <mxGeometry x="838.75" y="412.91" width="35" height="12.19" as="geometry" />
        </mxCell>
        <mxCell id="VoGEhj3P5TK3Omv5-3tw-168" style="edgeStyle=orthogonalEdgeStyle;curved=1;rounded=0;orthogonalLoop=1;jettySize=auto;html=1;exitX=0.5;exitY=1;exitDx=0;exitDy=0;entryX=0.75;entryY=1;entryDx=0;entryDy=0;dashed=1;fontSize=12;startArrow=classic;startFill=1;endArrow=classic;endFill=1;strokeWidth=1;" edge="1" parent="1" source="VoGEhj3P5TK3Omv5-3tw-148" target="VoGEhj3P5TK3Omv5-3tw-163">
          <mxGeometry relative="1" as="geometry" />
        </mxCell>
        <mxCell id="VoGEhj3P5TK3Omv5-3tw-148" value="" style="shape=image;verticalLabelPosition=bottom;labelBackgroundColor=#ffffff;verticalAlign=top;aspect=fixed;imageAspect=0;image=https://ebpf.io/static/logo-big-9cf8920e80cdc57e6ea60825ebe287ca.png;imageBackground=default;" vertex="1" parent="1">
          <mxGeometry x="885" y="412.91" width="35" height="12.19" as="geometry" />
        </mxCell>
        <mxCell id="VoGEhj3P5TK3Omv5-3tw-157" value="envoy" style="rounded=0;whiteSpace=wrap;html=1;strokeColor=#82b366;align=center;fillColor=#d5e8d4;" vertex="1" parent="1">
          <mxGeometry x="956.5" y="373" width="70" height="20" as="geometry" />
        </mxCell>
        <mxCell id="VoGEhj3P5TK3Omv5-3tw-158" value="app" style="rounded=0;whiteSpace=wrap;html=1;strokeColor=#b85450;align=center;fillColor=#f8cecc;" vertex="1" parent="1">
          <mxGeometry x="1054.5" y="373" width="35" height="20" as="geometry" />
        </mxCell>
        <mxCell id="VoGEhj3P5TK3Omv5-3tw-159" value="socket" style="rounded=0;whiteSpace=wrap;html=1;strokeColor=#d79b00;align=center;fillColor=#ffe6cc;" vertex="1" parent="1">
          <mxGeometry x="1052" y="397" width="47.5" height="20" as="geometry" />
        </mxCell>
        <mxCell id="VoGEhj3P5TK3Omv5-3tw-160" value="socket" style="rounded=0;whiteSpace=wrap;html=1;strokeColor=#d79b00;align=center;fillColor=#ffe6cc;" vertex="1" parent="1">
          <mxGeometry x="949" y="397" width="42.5" height="20" as="geometry" />
        </mxCell>
        <mxCell id="VoGEhj3P5TK3Omv5-3tw-161" value="socket" style="rounded=0;whiteSpace=wrap;html=1;strokeColor=#d79b00;align=center;fillColor=#ffe6cc;" vertex="1" parent="1">
          <mxGeometry x="995.5" y="397" width="42.5" height="20" as="geometry" />
        </mxCell>
        <mxCell id="VoGEhj3P5TK3Omv5-3tw-162" value="" style="shape=image;verticalLabelPosition=bottom;labelBackgroundColor=#ffffff;verticalAlign=top;aspect=fixed;imageAspect=0;image=https://ebpf.io/static/logo-big-9cf8920e80cdc57e6ea60825ebe287ca.png;imageBackground=default;" vertex="1" parent="1">
          <mxGeometry x="1058.25" y="412.91" width="35" height="12.19" as="geometry" />
        </mxCell>
        <mxCell id="VoGEhj3P5TK3Omv5-3tw-163" value="" style="shape=image;verticalLabelPosition=bottom;labelBackgroundColor=#ffffff;verticalAlign=top;aspect=fixed;imageAspect=0;image=https://ebpf.io/static/logo-big-9cf8920e80cdc57e6ea60825ebe287ca.png;imageBackground=default;" vertex="1" parent="1">
          <mxGeometry x="952.75" y="412.91" width="35" height="12.19" as="geometry" />
        </mxCell>
        <mxCell id="VoGEhj3P5TK3Omv5-3tw-167" style="edgeStyle=orthogonalEdgeStyle;curved=1;rounded=0;orthogonalLoop=1;jettySize=auto;html=1;exitX=0.5;exitY=1;exitDx=0;exitDy=0;entryX=0.5;entryY=1;entryDx=0;entryDy=0;dashed=1;fontSize=12;startArrow=classic;startFill=1;endArrow=classic;endFill=1;strokeWidth=1;" edge="1" parent="1" source="VoGEhj3P5TK3Omv5-3tw-164" target="VoGEhj3P5TK3Omv5-3tw-162">
          <mxGeometry relative="1" as="geometry" />
        </mxCell>
        <mxCell id="VoGEhj3P5TK3Omv5-3tw-164" value="" style="shape=image;verticalLabelPosition=bottom;labelBackgroundColor=#ffffff;verticalAlign=top;aspect=fixed;imageAspect=0;image=https://ebpf.io/static/logo-big-9cf8920e80cdc57e6ea60825ebe287ca.png;imageBackground=default;" vertex="1" parent="1">
          <mxGeometry x="999" y="412.91" width="35" height="12.19" as="geometry" />
        </mxCell>
        <mxCell id="VoGEhj3P5TK3Omv5-3tw-165" value="Pod" style="text;html=1;strokeColor=none;fillColor=none;align=center;verticalAlign=middle;whiteSpace=wrap;rounded=0;shadow=0;" vertex="1" parent="1">
          <mxGeometry x="991.75" y="337" width="60" height="30" as="geometry" />
        </mxCell>
        <mxCell id="VoGEhj3P5TK3Omv5-3tw-169" style="edgeStyle=orthogonalEdgeStyle;curved=1;rounded=0;orthogonalLoop=1;jettySize=auto;html=1;exitX=0.5;exitY=1;exitDx=0;exitDy=0;entryX=0;entryY=0.75;entryDx=0;entryDy=0;fontSize=12;startArrow=none;startFill=0;endArrow=classic;endFill=1;strokeWidth=1;" edge="1" parent="1" source="VoGEhj3P5TK3Omv5-3tw-7" target="VoGEhj3P5TK3Omv5-3tw-117">
          <mxGeometry relative="1" as="geometry" />
        </mxCell>
        <mxCell id="VoGEhj3P5TK3Omv5-3tw-171" value="updated by eBPF itself" style="text;html=1;strokeColor=none;fillColor=none;align=center;verticalAlign=middle;whiteSpace=wrap;rounded=0;shadow=0;fontSize=12;" vertex="1" parent="1">
          <mxGeometry x="590" y="497" width="150" height="30" as="geometry" />
        </mxCell>
        <mxCell id="VoGEhj3P5TK3Omv5-3tw-174" value="updated by controller" style="text;html=1;strokeColor=none;fillColor=none;align=center;verticalAlign=middle;whiteSpace=wrap;rounded=0;shadow=0;dashed=1;dashPattern=1 2;fontSize=12;" vertex="1" parent="1">
          <mxGeometry x="587.5" y="157.81" width="120" height="30" as="geometry" />
        </mxCell>
        <mxCell id="VoGEhj3P5TK3Omv5-3tw-182" value="CRD" style="swimlane;fontStyle=0;childLayout=stackLayout;horizontal=1;startSize=30;horizontalStack=0;resizeParent=1;resizeParentMax=0;resizeLast=0;collapsible=1;marginBottom=0;shadow=1;fontSize=12;strokeColor=#6c8ebf;strokeWidth=1;fillColor=#dae8fc;align=left;rounded=1;" vertex="1" parent="1">
          <mxGeometry x="370" y="-45" width="170" height="120" as="geometry">
            <mxRectangle x="370" y="-45" width="60" height="30" as="alternateBounds" />
          </mxGeometry>
        </mxCell>
        <mxCell id="VoGEhj3P5TK3Omv5-3tw-183" value="Pod IP, Host IP" style="text;align=left;verticalAlign=middle;spacingLeft=4;spacingRight=4;overflow=hidden;points=[[0,0.5],[1,0.5]];portConstraint=eastwest;rotatable=0;shadow=0;fontSize=12;" vertex="1" parent="VoGEhj3P5TK3Omv5-3tw-182">
          <mxGeometry y="30" width="170" height="30" as="geometry" />
        </mxCell>
        <mxCell id="VoGEhj3P5TK3Omv5-3tw-184" value="Pod vethpair mac and ifindex" style="text;align=left;verticalAlign=middle;spacingLeft=4;spacingRight=4;overflow=hidden;points=[[0,0.5],[1,0.5]];portConstraint=eastwest;rotatable=0;shadow=0;fontSize=12;" vertex="1" parent="VoGEhj3P5TK3Omv5-3tw-182">
          <mxGeometry y="60" width="170" height="30" as="geometry" />
        </mxCell>
        <mxCell id="VoGEhj3P5TK3Omv5-3tw-185" value="Host nic mac and ifindex" style="text;align=left;verticalAlign=middle;spacingLeft=4;spacingRight=4;overflow=hidden;points=[[0,0.5],[1,0.5]];portConstraint=eastwest;rotatable=0;shadow=0;fontSize=12;" vertex="1" parent="VoGEhj3P5TK3Omv5-3tw-182">
          <mxGeometry y="90" width="170" height="30" as="geometry" />
        </mxCell>
      </root>
    </mxGraphModel>
  </diagram>
</mxfile>
